<svg width="27" height="32" viewBox="0 0 27 32" fill="none" xmlns="http://www.w3.org/2000/svg">
<path d="M1.54523 13.1047C1.68988 12.9562 2.23604 12.3213 2.7448 11.7991C5.72752 8.51458 13.5085 3.13857 17.5811 1.49761C18.1996 1.23393 19.7633 0.675855 20.5987 0.640015C21.3993 0.640015 22.1624 0.824335 22.8906 1.19809C23.7984 1.72033 24.5266 2.54209 24.9256 3.51233C25.1825 4.18562 25.5815 6.20034 25.5815 6.23618C25.9806 8.44034 26.2 12.0218 26.2 15.9795C26.2 19.7504 25.9806 23.1859 25.6539 25.4234C25.6165 25.4592 25.2174 27.9629 24.781 28.8205C23.9805 30.3872 22.4168 31.36 20.7434 31.36H20.5987C19.5089 31.3216 17.217 30.3488 17.217 30.313C13.3639 28.6695 5.76243 23.5571 2.70739 20.16C2.70739 20.16 1.84699 19.2871 1.47291 18.7418C0.88933 17.9584 0.600037 16.9882 0.600037 16.0179C0.600037 14.9351 0.926739 13.9264 1.54523 13.1047Z" fill="#ffff"/>
</svg>
