<svg width="27" height="32" fill="#ffff" viewBox="0 0 27 32" xmlns="http://www.w3.org/2000/svg">
<path fill="#ffff" d="M25.4548 13.1047C25.3101 12.9562 24.764 12.3213 24.2552 11.7991C21.2725 8.51458 13.4915 3.13857 9.41892 1.49761C8.80043 1.23393 7.23675 0.675855 6.40129 0.640015C5.60074 0.640015 4.83761 0.824335 4.10938 1.19809C3.2016 1.72033 2.47338 2.54209 2.07435 3.51233C1.81748 4.18562 1.41845 6.20034 1.41845 6.23618C1.01943 8.44034 0.799963 12.0218 0.799963 15.9795C0.799963 19.7504 1.01943 23.1859 1.34613 25.4234C1.38354 25.4592 1.78256 27.9629 2.219 28.8205C3.01954 30.3872 4.58323 31.36 6.25664 31.36H6.40129C7.49113 31.3216 9.78303 30.3488 9.78303 30.313C13.6361 28.6695 21.2376 23.5571 24.2926 20.16C24.2926 20.16 25.153 19.2871 25.5271 18.7418C26.1107 17.9584 26.4 16.9882 26.4 16.0179C26.4 14.9351 26.0733 13.9264 25.4548 13.1047Z" />
</svg>
